<?xml version="1.0" encoding="UTF-8" standalone="no"?>
<!-- Created with Inkscape (http://www.inkscape.org/) -->

<svg
   xmlns:dc="http://purl.org/dc/elements/1.1/"
   xmlns:cc="http://creativecommons.org/ns#"
   xmlns:rdf="http://www.w3.org/1999/02/22-rdf-syntax-ns#"
   xmlns:svg="http://www.w3.org/2000/svg"
   xmlns="http://www.w3.org/2000/svg"
   xmlns:sodipodi="http://sodipodi.sourceforge.net/DTD/sodipodi-0.dtd"
   xmlns:inkscape="http://www.inkscape.org/namespaces/inkscape"
   width="64"
   height="64"
   id="svg3364"
   version="1.1"
   inkscape:version="0.91 r13725"
   viewBox="0 0 64 64"
   sodipodi:docname="glucose_meter.svg">
  <defs
     id="defs3366" />
  <sodipodi:namedview
     id="base"
     pagecolor="#ffffff"
     bordercolor="#666666"
     borderopacity="1.0"
     inkscape:pageopacity="0.0"
     inkscape:pageshadow="2"
     inkscape:zoom="1.9445436"
     inkscape:cx="202.90067"
     inkscape:cy="1.5563955"
     inkscape:current-layer="layer1"
     showgrid="true"
     inkscape:document-units="px"
     inkscape:grid-bbox="true"
     inkscape:window-width="1600"
     inkscape:window-height="837"
     inkscape:window-x="-8"
     inkscape:window-y="-8"
     inkscape:window-maximized="1" />
  <metadata
     id="metadata3369">
    <rdf:RDF>
      <cc:Work
         rdf:about="">
        <dc:format>image/svg+xml</dc:format>
        <dc:type
           rdf:resource="http://purl.org/dc/dcmitype/StillImage" />
        <dc:title></dc:title>
      </cc:Work>
    </rdf:RDF>
  </metadata>
  <g
     id="layer1"
     inkscape:label="Layer 1"
     inkscape:groupmode="layer">
    <path
       d="m 44.88952,1.48077 -22.448796,0 c -6.581399,0 -11.932108,4.621018 -11.932108,10.302636 l 0,30.352896 c 0,3.305388 3.113112,5.996204 6.939145,5.996204 l 8.920464,0 0,15.615742 c 0,0.930263 0.872913,1.685277 1.951387,1.685277 l 10.687121,0 c 1.077164,0 1.951388,-0.755014 1.951388,-1.685277 l 0,-15.615742 8.920454,0 c 3.827332,0 6.94175,-2.690816 6.94175,-5.996204 l 0,-30.352896 C 56.821218,6.101788 51.468313,1.48077 44.88952,1.48077 Z m -7.834178,60.582209 -6.784346,0 0,-5.859137 6.784346,0 0,5.859137 z m 0,-9.229683 -6.784346,0 0,-9.516177 6.784346,0 0,9.516177 z M 52.918844,42.136302 c 0,1.448208 -1.363373,2.625655 -3.038962,2.625655 l -8.920458,0 0,-1.443711 3.663414,0 c 1.077168,0 1.951388,-0.755007 1.951388,-1.685273 0,-0.930276 -0.87422,-1.685281 -1.951388,-1.685281 l -21.915428,0 c -1.078475,0 -1.951387,0.755005 -1.951387,1.685281 0,0.930266 0.872912,1.685273 1.951387,1.685273 l 3.660815,0 0,1.443711 -8.920464,0 c -1.67429,0 -3.03637,-1.177447 -3.03637,-2.625655 l 0,-30.352896 c 0,-3.822197 3.600966,-6.932086 8.029333,-6.932086 l 22.448796,0 c 4.425758,0 8.029324,3.109889 8.029324,6.932086 l 0,30.352896 z m -5.694163,-33.841409 -27.119131,0 c -1.078461,0 -1.951383,0.755001 -1.951383,1.685272 l 0,18.845855 c 0,0.930263 0.872922,1.685273 1.951383,1.685273 l 27.119131,0 c 1.077181,0 1.951401,-0.75501 1.951401,-1.685273 l 0,-18.845855 c 0,-0.930271 -0.87422,-1.685272 -1.951401,-1.685272 z m -1.951383,18.846971 -23.216348,0 0,-15.476422 23.216348,0 0,15.476422 z M 33.663822,60.884407 c 1.120101,0 2.028152,-0.783091 2.028152,-1.751559 0,-0.968469 -0.906761,-1.751559 -2.028152,-1.751559 -1.121399,0 -2.028147,0.78309 -2.028147,1.751559 0,0.968468 0.90805,1.751559 2.028147,1.751559 z m 12.259945,-27.339624 -3.982143,0 c -1.07847,0 -1.951388,0.754995 -1.951388,1.685275 0,0.930267 0.872918,1.685268 1.951388,1.685268 l 3.982143,0 c 1.077167,0 1.951387,-0.755001 1.951387,-1.685268 0,-0.93028 -0.87422,-1.685275 -1.951387,-1.685275 z m -10.270824,0 -3.982144,0 c -1.077163,0 -1.951388,0.754995 -1.951388,1.685275 0,0.930267 0.874225,1.685268 1.951388,1.685268 l 3.982144,0 c 1.078461,0 1.951387,-0.755001 1.951387,-1.685268 0,-0.93028 -0.872926,-1.685275 -1.951387,-1.685275 z m -10.264322,0 -3.982139,0 c -1.07847,0 -1.951388,0.754995 -1.951388,1.685275 0,0.930267 0.872918,1.685268 1.951388,1.685268 l 3.982139,0 c 1.077168,0 1.951392,-0.755001 1.951392,-1.685268 0,-0.93028 -0.874224,-1.685275 -1.951392,-1.685275 z m 8.272605,-7.368019 c 3.65039,0 6.61911,-2.562742 6.61911,-5.714196 0,-3.532331 -4.830336,-7.057929 -5.380627,-7.448912 -0.719421,-0.511199 -1.757558,-0.511199 -2.475672,0 -0.551589,0.390983 -5.379338,3.916581 -5.379338,7.448912 0,3.150333 2.96872,5.714196 6.616527,5.714196 z m 0,-9.566737 c 1.354255,1.199917 2.716326,2.794185 2.716326,3.852541 0,1.292039 -1.218972,2.343655 -2.716326,2.343655 -1.496074,0 -2.713743,-1.051616 -2.713743,-2.343655 0,-1.067333 1.346462,-2.644768 2.713743,-3.852541 z"
       id="path3338"
       inkscape:connector-curvature="0" />
  </g>
</svg>
