<?xml version="1.0" encoding="UTF-8" standalone="no"?>
<svg
   xmlns:dc="http://purl.org/dc/elements/1.1/"
   xmlns:cc="http://creativecommons.org/ns#"
   xmlns:rdf="http://www.w3.org/1999/02/22-rdf-syntax-ns#"
   xmlns:svg="http://www.w3.org/2000/svg"
   xmlns="http://www.w3.org/2000/svg"
   xmlns:sodipodi="http://sodipodi.sourceforge.net/DTD/sodipodi-0.dtd"
   xmlns:inkscape="http://www.inkscape.org/namespaces/inkscape"
   version="1.1"
   x="0px"
   y="0px"
   viewBox="0 0 100 125"
   enable-background="new 0 0 100 100"
   xml:space="preserve"
   id="svg3336"
   inkscape:version="0.91 r13725"
   sodipodi:docname="noun_188893_cc.svg"><metadata
     id="metadata3348"><rdf:RDF><cc:Work
         rdf:about=""><dc:format>image/svg+xml</dc:format><dc:type
           rdf:resource="http://purl.org/dc/dcmitype/StillImage" /><dc:title></dc:title></cc:Work></rdf:RDF></metadata><defs
     id="defs3346" /><sodipodi:namedview
     pagecolor="#ffffff"
     bordercolor="#666666"
     borderopacity="1"
     objecttolerance="10"
     gridtolerance="10"
     guidetolerance="10"
     inkscape:pageopacity="0"
     inkscape:pageshadow="2"
     inkscape:window-width="1600"
     inkscape:window-height="837"
     id="namedview3344"
     showgrid="false"
     inkscape:zoom="5.344"
     inkscape:cx="22.024701"
     inkscape:cy="62.5"
     inkscape:window-x="-8"
     inkscape:window-y="-8"
     inkscape:window-maximized="1"
     inkscape:current-layer="svg3336" /><path
     d="m 56.555088,21.539 -21.156357,0 c -6.202481,0 -11.245138,4.626802 -11.245138,10.315529 l 0,30.390879 c 0,3.309518 2.933887,6.003705 6.539639,6.003705 l 8.40688,0 0,15.635283 c 0,0.931435 0.822666,1.687383 1.839044,1.687383 l 10.071829,0 c 1.015152,0 1.839043,-0.755948 1.839043,-1.687383 l 0,-15.635283 8.406881,0 c 3.606977,0 6.542091,-2.694187 6.542091,-6.003705 l 0,-30.390879 C 67.800226,26.165802 62.755117,21.539 56.555088,21.539 Z m -7.383147,60.658014 -6.393742,0 0,-5.866465 6.393742,0 0,5.866465 z m 0,-9.241229 -6.393742,0 0,-9.528085 6.393742,0 0,9.528085 z M 64.122139,62.245408 c 0,1.450023 -1.284879,2.628941 -2.864004,2.628941 l -8.406881,0 0,-1.445524 3.452498,0 c 1.015152,0 1.839044,-0.755948 1.839044,-1.687382 0,-0.931435 -0.823892,-1.687383 -1.839044,-1.687383 l -20.653685,0 c -1.016378,0 -1.839044,0.755948 -1.839044,1.687383 0,0.931434 0.822666,1.687382 1.839044,1.687382 l 3.450045,0 0,1.445524 -8.40688,0 c -1.5779,0 -2.861552,-1.178918 -2.861552,-2.628941 l 0,-30.390879 c 0,-3.826982 3.393649,-6.940765 7.567051,-6.940765 l 21.156357,0 c 4.17095,0 7.567051,3.113783 7.567051,6.940765 l 0,30.390879 z m -5.366329,-33.883759 -25.557801,0 c -1.016378,0 -1.839044,0.755947 -1.839044,1.687381 l 0,18.869433 c 0,0.931435 0.822666,1.687382 1.839044,1.687382 l 25.557801,0 c 1.015152,0 1.839043,-0.755947 1.839043,-1.687382 l 0,-18.869433 c 0,-0.931434 -0.823891,-1.687381 -1.839043,-1.687381 z m -1.839043,18.870557 -21.879715,0 0,-15.495793 21.879715,0 0,15.495793 z M 45.975683,81.016972 c 1.055611,0 1.91138,-0.784071 1.91138,-1.753753 0,-0.969683 -0.854543,-1.753753 -1.91138,-1.753753 -1.056836,0 -1.911379,0.78407 -1.911379,1.753753 0,0.969682 0.855769,1.753753 1.911379,1.753753 z m 11.554098,-27.373839 -3.752875,0 c -1.016378,0 -1.839043,0.755948 -1.839043,1.687382 0,0.931435 0.822665,1.687382 1.839043,1.687382 l 3.752875,0 c 1.015152,0 1.839043,-0.755947 1.839043,-1.687382 0,-0.931434 -0.823891,-1.687382 -1.839043,-1.687382 z m -9.679499,0 -3.752875,0 c -1.015152,0 -1.839044,0.755948 -1.839044,1.687382 0,0.931435 0.823892,1.687382 1.839044,1.687382 l 3.752875,0 c 1.016378,0 1.839043,-0.755947 1.839043,-1.687382 0,-0.931434 -0.822665,-1.687382 -1.839043,-1.687382 z m -9.673369,0 -3.752875,0 c -1.016378,0 -1.839044,0.755948 -1.839044,1.687382 0,0.931435 0.822666,1.687382 1.839044,1.687382 l 3.752875,0 c 1.015152,0 1.839043,-0.755947 1.839043,-1.687382 0,-0.931434 -0.823891,-1.687382 -1.839043,-1.687382 z m 7.796318,-7.377234 c 3.440237,0 6.238036,-2.565947 6.238036,-5.721351 0,-3.536753 -4.552246,-7.066757 -5.070856,-7.45823 -0.677995,-0.511838 -1.656365,-0.511838 -2.333133,0 -0.519836,0.391473 -5.06963,3.921477 -5.06963,7.45823 0,3.154279 2.797798,5.721351 6.235583,5.721351 z m 0,-9.578707 c 1.276296,1.201417 2.559949,2.79768 2.559949,3.857356 0,1.293659 -1.14879,2.346586 -2.559949,2.346586 -1.409933,0 -2.557497,-1.052927 -2.557497,-2.346586 0,-1.068675 1.268941,-2.648066 2.557497,-3.857356 z"
     id="path3338"
     inkscape:connector-curvature="0" /><text
     x="0"
     y="115"
     font-size="5px"
     font-weight="bold"
     id="text3340"
     style="font-weight:bold;font-size:5px;font-family:'Helvetica Neue', Helvetica, Arial-Unicode, Arial, Sans-serif;fill:#000000" />
<text
     x="0"
     y="120"
     font-size="5px"
     font-weight="bold"
     id="text3342"
     style="font-weight:bold;font-size:5px;font-family:'Helvetica Neue', Helvetica, Arial-Unicode, Arial, Sans-serif;fill:#000000" />
</svg>